<?xml version="1.0" encoding="UTF-8" standalone="no"?>
<!-- Created with Inkscape (http://www.inkscape.org/) -->

<svg
   width="500"
   height="500"
   viewBox="0 0 132.29166 132.29167"
   version="1.1"
   id="svg5"
   inkscape:version="1.2.2 (732a01da63, 2022-12-09)"
   sodipodi:docname="quickserving-logo.svg"
   xmlns:inkscape="http://www.inkscape.org/namespaces/inkscape"
   xmlns:sodipodi="http://sodipodi.sourceforge.net/DTD/sodipodi-0.dtd"
   xmlns:xlink="http://www.w3.org/1999/xlink"
   xmlns="http://www.w3.org/2000/svg"
   xmlns:svg="http://www.w3.org/2000/svg">
  <sodipodi:namedview
     id="namedview7"
     pagecolor="#ffffff"
     bordercolor="#000000"
     borderopacity="0.25"
     inkscape:showpageshadow="2"
     inkscape:pageopacity="0.0"
     inkscape:pagecheckerboard="0"
     inkscape:deskcolor="#d1d1d1"
     inkscape:document-units="mm"
     showgrid="false"
     inkscape:zoom="1"
     inkscape:cx="89.5"
     inkscape:cy="258"
     inkscape:window-width="1920"
     inkscape:window-height="1009"
     inkscape:window-x="-8"
     inkscape:window-y="-8"
     inkscape:window-maximized="1"
     inkscape:current-layer="layer1" />
  <defs
     id="defs2">
    <linearGradient
       inkscape:collect="always"
       id="linearGradient4781">
      <stop
         style="stop-color:#f6d32d;stop-opacity:1;"
         offset="0"
         id="stop4777" />
      <stop
         style="stop-color:#e5a50a;stop-opacity:1"
         offset="1"
         id="stop4779" />
    </linearGradient>
    <linearGradient
       inkscape:collect="always"
       id="linearGradient4697">
      <stop
         style="stop-color:#ffa348;stop-opacity:1"
         offset="0"
         id="stop4693" />
      <stop
         style="stop-color:#f6d32d;stop-opacity:1"
         offset="1"
         id="stop4695" />
    </linearGradient>
    <linearGradient
       inkscape:collect="always"
       id="linearGradient4404">
      <stop
         style="stop-color:#000000;stop-opacity:1;"
         offset="0"
         id="stop4400" />
      <stop
         style="stop-color:#c64600;stop-opacity:1"
         offset="1"
         id="stop4402" />
    </linearGradient>
    <inkscape:path-effect
       effect="bspline"
       id="path-effect4067"
       is_visible="true"
       lpeversion="1"
       weight="20"
       steps="1"
       helper_size="0"
       apply_no_weight="true"
       apply_with_weight="true"
       only_selected="false" />
    <inkscape:path-effect
       effect="fillet_chamfer"
       id="path-effect4065"
       is_visible="true"
       lpeversion="1"
       nodesatellites_param="F,0,0,1,0,0,0,1 @ F,0,0,1,0,0,0,1 @ F,0,0,1,0,0,0,1 @ F,0,0,1,0,0,0,1 @ F,0,0,1,0,0,0,1 @ F,0,0,1,0,0,0,1 @ F,0,0,1,0,0,0,1 @ F,0,0,1,0,0,0,1 @ F,0,0,1,0,0,0,1 @ F,0,0,1,0,0,0,1 @ F,0,0,1,0,0,0,1 @ F,0,0,1,0,0,0,1 @ F,0,0,1,0,0,0,1 @ F,0,0,1,0,0,0,1 @ F,0,0,1,0,0,0,1 @ F,0,0,1,0,0,0,1"
       unit="px"
       method="auto"
       mode="F"
       radius="0"
       chamfer_steps="1"
       flexible="false"
       use_knot_distance="true"
       apply_no_radius="true"
       apply_with_radius="true"
       only_selected="false"
       hide_knots="false" />
    <linearGradient
       inkscape:collect="always"
       xlink:href="#linearGradient4404"
       id="linearGradient4406"
       x1="64.639137"
       y1="63.014496"
       x2="64.639137"
       y2="29.185833"
       gradientUnits="userSpaceOnUse"
       gradientTransform="matrix(1.5120639,0,0,1.5120639,-30.965313,-18.940682)" />
    <linearGradient
       inkscape:collect="always"
       xlink:href="#linearGradient4697"
       id="linearGradient4699"
       x1="67.351921"
       y1="106.64054"
       x2="67.351921"
       y2="28.250399"
       gradientUnits="userSpaceOnUse" />
    <linearGradient
       inkscape:collect="always"
       xlink:href="#linearGradient4781"
       id="linearGradient4783"
       x1="64.558334"
       y1="106.3625"
       x2="64.558334"
       y2="33.602081"
       gradientUnits="userSpaceOnUse" />
  </defs>
  <g
     inkscape:label="Warstwa 1"
     inkscape:groupmode="layer"
     id="layer1">
    <rect
       style="fill:url(#linearGradient4783);stroke-width:0.264999;fill-opacity:1"
       id="rect4604"
       width="104.775"
       height="104.775"
       x="13.758332"
       y="13.758332"
       rx="12.699999"
       ry="12.699999" />
    <path
       id="path4127"
       style="fill:url(#linearGradient4406);fill-opacity:1;stroke-width:0.400695"
       inkscape:transform-center-y="6.2336247"
       d="m 55.739034,38.01963 -15.987831,9.231232 15.987831,9.23045 -11.051849,-9.280458 z m 20.813637,0 11.051848,9.181224 -11.051848,9.280458 15.987831,-9.23045 z M 18.632826,57.501795 c 6.795016,8.492333 30.504091,15.975015 41.865597,26.980294 l 5.64235,9.771948 v 0.018 l 0.0054,-0.009 0.0047,0.009 v -0.018 l 5.64235,-9.771948 C 83.154758,73.47681 106.86383,65.994128 113.65884,57.501795 103.88767,59.112198 93.513994,62.083 83.57022,64.083365 l 3.68421,-6.381537 c -4.517058,4.979801 -10.161517,7.413437 -16.506667,8.263101 -1.55882,0.11401 -3.092099,0.170685 -4.596863,0.162527 -0.0033,2e-5 -0.0068,-1.8e-5 -0.01013,0 -1.504762,0.0082 -3.038043,-0.04852 -4.596862,-0.162527 -6.345151,-0.849664 -11.98961,-3.2833 -16.506668,-8.263101 l 3.68421,6.381537 C 38.777681,62.083 28.403998,59.112198 18.632826,57.501795 Z"
       inkscape:transform-center-x="1.7e-05" />
    <path
       id="rect4678"
       style="fill:url(#linearGradient4699);stroke-width:0.264999;fill-opacity:1"
       d="M 26.458333 13.758333 C 19.422541 13.758333 13.758333 19.422541 13.758333 26.458333 L 13.758333 105.83333 C 13.758333 112.86913 19.422541 118.53333 26.458333 118.53333 L 105.83333 118.53333 C 112.86913 118.53333 118.53333 112.86913 118.53333 105.83333 L 118.53333 26.458333 C 118.53333 19.422541 112.86913 13.758333 105.83333 13.758333 L 26.458333 13.758333 z M 28.868005 16.939018 L 103.42366 16.939018 C 110.0323 16.939018 115.35265 22.259364 115.35265 28.868005 L 115.35265 103.42366 C 115.35265 110.0323 110.0323 115.35265 103.42366 115.35265 L 28.868005 115.35265 C 22.259364 115.35265 16.939018 110.0323 16.939018 103.42366 L 16.939018 28.868005 C 16.939018 22.259364 22.259364 16.939018 28.868005 16.939018 z " />
  </g>
</svg>
